HIERARCHY
ROOT Hips
{
	OFFSET 0.000000 0.000000 0.000000
	CHANNELS 6 Xposition Yposition Zposition Yrotation Xrotation Zrotation
	JOINT Spine
	{
		OFFSET 0.000000 0.000000 -2.106134
		CHANNELS 6 Xposition Yposition Zposition Yrotation Xrotation Zrotation
		JOINT Spine1
		{
			OFFSET 0.000000 0.000003 -4.765754
			CHANNELS 6 Xposition Yposition Zposition Yrotation Xrotation Zrotation
			JOINT Neck
			{
				OFFSET 0.000000 0.000003 -5.279445
				CHANNELS 6 Xposition Yposition Zposition Yrotation Xrotation Zrotation
				JOINT Head
				{
					OFFSET 0.000000 0.513693 -3.981110
					CHANNELS 6 Xposition Yposition Zposition Yrotation Xrotation Zrotation
					End Site
					{
						OFFSET 0.000000 0.000003 -5.136913
					}
				}
			}
			JOINT LeftShoulder
			{
				OFFSET 1.025240 -0.112039 -4.307662
				CHANNELS 6 Xposition Yposition Zposition Yrotation Xrotation Zrotation
				JOINT LeftArm
				{
					OFFSET 2.971458 0.000000 0.000000
					CHANNELS 6 Xposition Yposition Zposition Yrotation Xrotation Zrotation
					JOINT LeftForeArm
					{
						OFFSET 7.705796 0.000000 0.000000
						CHANNELS 6 Xposition Yposition Zposition Yrotation Xrotation Zrotation
						JOINT LeftHand
						{
							OFFSET 6.891853 0.000000 0.000000
							CHANNELS 6 Xposition Yposition Zposition Yrotation Xrotation Zrotation
							End Site
							{
								OFFSET 3.852686 0.000000 0.000000
							}
						}
					}
				}
			}
			JOINT RightShoulder
			{
				OFFSET -1.027336 -0.112039 -4.307662
				CHANNELS 6 Xposition Yposition Zposition Yrotation Xrotation Zrotation
				JOINT RightArm
				{
					OFFSET -2.971458 0.000000 0.000000
					CHANNELS 6 Xposition Yposition Zposition Yrotation Xrotation Zrotation
					JOINT RightForeArm
					{
						OFFSET -7.705796 0.000000 0.000000
						CHANNELS 6 Xposition Yposition Zposition Yrotation Xrotation Zrotation
						JOINT RightHand
						{
							OFFSET -6.891853 0.000000 0.000000
							CHANNELS 6 Xposition Yposition Zposition Yrotation Xrotation Zrotation
							End Site
							{
								OFFSET -3.852686 0.000000 0.000000
							}
						}
					}
				}
			}
		}
	}
	JOINT LeftUpLeg
	{
		OFFSET 2.568456 0.000000 0.000000
		CHANNELS 6 Xposition Yposition Zposition Yrotation Xrotation Zrotation
		JOINT LeftLeg
		{
			OFFSET 0.000000 -0.000006 13.368048
			CHANNELS 6 Xposition Yposition Zposition Yrotation Xrotation Zrotation
			JOINT LeftFoot
			{
				OFFSET 0.000000 -0.000006 10.738913
				CHANNELS 6 Xposition Yposition Zposition Yrotation Xrotation Zrotation
				JOINT LeftToeBase
				{
					OFFSET 0.000000 3.852684 1.669498
					CHANNELS 6 Xposition Yposition Zposition Yrotation Xrotation Zrotation
					End Site
					{
						OFFSET 0.000000 1.027382 0.000000
					}
				}
			}
		}
	}
	JOINT RightUpLeg
	{
		OFFSET -2.568456 0.000000 0.000000
		CHANNELS 6 Xposition Yposition Zposition Yrotation Xrotation Zrotation
		JOINT RightLeg
		{
			OFFSET 0.000000 -0.000006 13.368048
			CHANNELS 6 Xposition Yposition Zposition Yrotation Xrotation Zrotation
			JOINT RightFoot
			{
				OFFSET 0.000000 -0.000006 10.738913
				CHANNELS 6 Xposition Yposition Zposition Yrotation Xrotation Zrotation
				JOINT RightToeBase
				{
					OFFSET 0.000000 3.852684 1.669498
					CHANNELS 6 Xposition Yposition Zposition Yrotation Xrotation Zrotation
					End Site
					{
						OFFSET 0.000000 1.027382 0.000000
					}
				}
			}
		}
	}
}
MOTION
Frames: 9
Frame Time: 0.041667
-1.130810 -2.117564 -23.864227 -9.362437 3.772114 -86.394305 0.000000 0.000003 -2.106134 -0.799455 -8.308859 6.586910 0.000000 0.000003 -4.765749 13.287669 0.194488 2.183458 0.000003 0.000002 -5.279450 -13.544590 23.526952 22.900274 -0.000001 0.513696 -3.981104 37.365035 -5.655236 30.775852 1.025241 -0.112039 -4.307662 15.783990 -2.113457 9.888522 2.971454 -0.000000 -0.000004 -10.084204 16.000647 -1.475521 7.705795 0.000003 0.000003 16.126838 -25.376055 -7.377686 6.891859 0.000003 -0.000000 -41.611698 -19.576036 19.077178 -1.027333 -0.112039 -4.307668 -5.767209 8.319227 5.699634 -2.971457 0.000000 0.000004 32.147368 27.010149 -4.481602 -7.705796 0.000004 -0.000003 -15.806846 -12.804606 -62.291557 -6.891852 0.000001 -0.000000 5.478147 -3.071701 -4.308751 2.568456 0.000000 -0.000002 7.642065 -16.940109 3.619546 -0.000001 -0.000006 13.368047 -11.843732 28.183620 -17.513139 -0.000001 -0.000004 10.738913 -0.420406 -13.015902 -18.558100 -0.000003 3.852685 1.669496 0.000002 -0.000005 0.000008 -2.568456 0.000000 -0.000002 -9.204296 -21.890215 -3.860447 -0.000000 -0.000008 13.368045 7.011938 37.241180 2.142198 0.000000 -0.000005 10.738918 4.816211 -20.717311 0.318727 0.000000 3.852685 1.669500 -0.000000 -0.000001 -0.000000 
-1.131346 -2.200932 -23.892588 -9.350317 3.748862 -86.159087 0.000000 0.000002 -2.106133 -0.719999 -8.377107 6.567857 0.000000 0.000003 -4.765754 13.044870 0.137791 2.171911 0.000001 -0.000000 -5.279444 -13.584355 23.661777 22.857544 -0.000003 0.513692 -3.981108 37.260130 -6.141600 30.590874 1.025241 -0.112039 -4.307662 15.844087 -2.074350 9.945200 2.971456 -0.000001 -0.000004 -10.089456 15.851051 -1.533172 7.705806 -0.000003 -0.000009 16.095431 -25.346118 -7.315716 6.891856 0.000001 0.000002 -41.714878 -19.517462 19.072590 -1.027334 -0.112039 -4.307663 -6.001674 8.160547 5.664358 -2.971458 -0.000001 0.000005 31.860473 26.670789 -4.236374 -7.705797 0.000003 -0.000003 -15.859074 -14.928847 -63.419823 -6.891861 -0.000000 -0.000004 8.638145 -4.836177 -4.976128 2.568456 -0.000001 0.000002 7.374178 -16.428644 3.473516 -0.000002 -0.000006 13.368043 -11.464262 27.182370 -17.339140 -0.000001 -0.000005 10.738915 -0.257310 -12.966717 -18.792142 -0.000001 3.852685 1.669498 0.000001 -0.000002 0.000002 -2.568456 -0.000001 0.000003 -9.297189 -21.797393 -4.020950 0.000000 -0.000006 13.368046 6.870063 36.858132 2.153497 0.000000 -0.000007 10.738919 5.172520 -20.282638 0.055298 0.000000 3.852685 1.669499 -0.000000 -0.000001 0.000000 
-1.134248 -2.286342 -23.919989 -9.335579 3.725780 -85.953102 -0.000000 0.000000 -2.106134 -0.627648 -8.412776 6.563765 0.000000 0.000003 -4.765757 12.771970 0.041027 2.161479 -0.000000 0.000002 -5.279437 -13.607505 23.790408 22.840267 -0.000000 0.513700 -3.981106 37.137972 -6.595046 30.435685 1.025241 -0.112039 -4.307662 15.932229 -2.042469 10.002240 2.971453 0.000000 -0.000002 -10.180875 16.048312 -1.519750 7.705796 0.000000 -0.000002 16.275239 -25.463642 -7.513746 6.891855 0.000000 0.000007 -41.834499 -19.615453 19.181953 -1.027336 -0.112039 -4.307659 -6.285292 7.911897 5.524527 -2.971456 -0.000001 -0.000003 31.654030 25.972780 -3.803121 -7.705793 0.000002 -0.000005 -15.525923 -16.638390 -64.802977 -6.891860 -0.000004 -0.000000 11.384780 -6.394463 -5.350909 2.568456 -0.000000 0.000002 7.075102 -15.963674 3.308750 -0.000001 -0.000006 13.368044 -11.111504 26.194479 -17.580898 -0.000003 -0.000004 10.738917 0.139124 -12.844913 -18.752937 -0.000000 3.852686 1.669498 -0.000000 0.000001 0.000002 -2.568459 -0.000000 -0.000000 -9.368554 -21.707425 -4.172007 -0.000000 -0.000007 13.368047 6.639098 36.491235 2.216981 -0.000000 -0.000007 10.738920 5.587919 -19.841974 -0.296135 0.000000 3.852683 1.669500 -0.000000 -0.000001 -0.000000 
-1.138464 -2.373554 -23.949068 -9.321724 3.716502 -85.728027 0.000000 0.000000 -2.106129 -0.553116 -8.391126 6.548352 0.000000 0.000003 -4.765752 12.533664 -0.156076 2.136422 -0.000002 0.000002 -5.279440 -13.685025 23.952478 22.791645 -0.000001 0.513694 -3.981113 37.026479 -7.025695 30.280571 1.025241 -0.112039 -4.307656 15.993429 -1.928585 10.029331 2.971454 -0.000001 0.000001 -10.094343 15.517403 -1.536054 7.705796 0.000002 -0.000010 16.022116 -25.284054 -7.244922 6.891856 0.000001 -0.000007 -41.708482 -19.467007 18.999679 -1.027339 -0.112039 -4.307651 -6.627371 7.802093 5.451143 -2.971459 0.000000 -0.000002 31.364003 25.138371 -3.585343 -7.705797 0.000005 0.000002 -15.102542 -18.232191 -66.180251 -6.891859 0.000002 -0.000002 13.876920 -7.900995 -5.761514 2.568458 -0.000000 0.000007 6.783539 -15.529308 3.147230 -0.000000 -0.000006 13.368039 -10.844745 25.311025 -17.939077 -0.000003 -0.000003 10.738914 0.573239 -12.714533 -18.600159 0.000002 3.852685 1.669499 -0.000001 0.000001 -0.000002 -2.568456 -0.000000 0.000006 -9.451990 -21.619458 -4.432768 -0.000000 -0.000006 13.368048 6.484936 36.097027 2.284154 -0.000000 -0.000008 10.738919 5.946723 -19.397877 -0.503337 -0.000000 3.852685 1.669500 -0.000000 0.000000 -0.000000 
-1.144014 -2.463360 -23.976374 -9.299256 3.710049 -85.540592 -0.000000 0.000001 -2.106132 -0.454507 -8.407317 6.538659 0.000001 0.000003 -4.765754 12.208552 -0.271920 2.123595 -0.000001 0.000002 -5.279460 -13.700647 24.109724 22.757615 0.000002 0.513695 -3.981102 36.968191 -7.509966 30.104571 1.025239 -0.112039 -4.307669 16.098355 -1.888816 10.083564 2.971450 0.000000 -0.000001 -10.072062 15.407069 -1.522971 7.705797 -0.000003 -0.000001 15.972710 -25.306886 -7.217623 6.891858 0.000004 -0.000005 -41.744856 -19.483282 18.984407 -1.027338 -0.112039 -4.307663 -6.878402 7.508219 5.242634 -2.971458 0.000000 0.000004 31.158886 24.701796 -3.160107 -7.705797 0.000008 -0.000005 -15.185952 -20.175399 -67.193707 -6.891858 0.000003 0.000005 16.474099 -9.465994 -6.387362 2.568456 0.000000 0.000001 6.463678 -15.152505 3.010024 -0.000002 -0.000006 13.368038 -10.505347 24.537741 -17.971713 -0.000000 -0.000003 10.738914 0.998305 -12.507821 -18.632713 0.000001 3.852684 1.669499 -0.000000 -0.000000 -0.000005 -2.568456 0.000000 0.000001 -9.556260 -21.514094 -4.642298 -0.000000 -0.000005 13.368045 6.320600 35.694203 2.273040 -0.000000 -0.000006 10.738917 6.280798 -18.974416 -0.631845 0.000000 3.852683 1.669499 0.000000 0.000001 -0.000000 
-1.148808 -2.552032 -24.005901 -9.269787 3.678420 -85.393614 -0.000000 0.000000 -2.106133 -0.352408 -8.430956 6.550949 0.000001 0.000003 -4.765748 11.896730 -0.361684 2.121462 -0.000002 -0.000000 -5.279456 -13.695440 24.261785 22.760525 -0.000001 0.513692 -3.981114 36.900217 -8.007375 29.953009 1.025239 -0.112041 -4.307665 16.222615 -1.825431 10.146845 2.971461 0.000001 0.000000 -10.072186 15.347819 -1.472253 7.705797 -0.000001 -0.000004 15.969816 -25.342971 -7.286454 6.891855 0.000002 -0.000004 -41.778013 -19.508979 19.024476 -1.027336 -0.112041 -4.307668 -7.150881 7.167127 5.030820 -2.971458 0.000001 0.000004 31.016394 24.546651 -2.796872 -7.705793 0.000001 -0.000006 -15.838982 -22.379178 -67.720492 -6.891852 -0.000001 0.000004 19.254718 -10.947331 -7.260274 2.568456 -0.000000 0.000002 6.172088 -14.838241 2.822835 -0.000004 -0.000005 13.368047 -10.131653 23.947352 -17.807758 -0.000003 -0.000005 10.738920 1.221998 -12.323194 -18.687785 -0.000000 3.852685 1.669498 0.000000 -0.000004 0.000005 -2.568459 -0.000000 0.000004 -9.627631 -21.396888 -4.840410 -0.000000 -0.000005 13.368049 6.129838 35.308458 2.333805 0.000000 -0.000005 10.738917 6.577052 -18.509032 -0.807933 0.000000 3.852683 1.669500 -0.000000 -0.000000 0.000000 
-1.156694 -2.642200 -24.032925 -9.245708 3.642981 -85.261231 0.000000 -0.000000 -2.106131 -0.236157 -8.429472 6.558531 0.000000 0.000003 -4.765754 11.571775 -0.493985 2.114384 -0.000001 0.000002 -5.279444 -13.713565 24.422277 22.769986 0.000000 0.513693 -3.981112 36.865458 -8.469260 29.830506 1.025239 -0.112039 -4.307656 16.333115 -1.747524 10.204892 2.971457 -0.000002 0.000003 -10.017037 15.170035 -1.402008 7.705803 -0.000003 -0.000008 15.906807 -25.333633 -7.287013 6.891857 0.000000 0.000005 -41.790502 -19.509372 18.980884 -1.027337 -0.112039 -4.307658 -7.435012 7.020919 4.946618 -2.971459 -0.000001 0.000004 30.800192 24.042336 -2.714271 -7.705795 0.000002 0.000002 -16.509766 -24.400999 -68.147133 -6.891861 -0.000001 0.000000 21.971793 -12.213771 -8.172846 2.568456 -0.000000 0.000003 5.906617 -14.599096 2.539411 -0.000001 -0.000008 13.368043 -9.719567 23.466189 -17.435520 -0.000001 -0.000004 10.738917 1.223971 -12.166363 -18.732048 -0.000001 3.852685 1.669498 0.000001 -0.000001 0.000001 -2.568458 -0.000001 0.000005 -9.699605 -21.288737 -5.062940 -0.000000 -0.000005 13.368047 5.966737 34.922860 2.566497 -0.000000 -0.000005 10.738910 6.913170 -18.041940 -1.091471 0.000000 3.852685 1.669499 0.000000 -0.000001 -0.000000 
-1.165254 -2.732562 -24.060537 -9.223048 3.619679 -85.148546 -0.000000 0.000000 -2.106137 -0.236413 -8.475407 6.563409 0.000001 0.000003 -4.765755 11.403723 -0.525988 2.113471 -0.000001 0.000002 -5.279445 -13.718404 24.493412 22.826747 0.000001 0.513697 -3.981112 36.755075 -8.909563 29.744316 1.025240 -0.112039 -4.307662 16.386121 -1.749491 10.322967 2.971453 -0.000000 0.000001 -10.038628 15.385360 -1.321598 7.705798 -0.000001 -0.000010 16.025729 -25.441992 -7.527032 6.891862 -0.000001 0.000000 -41.934189 -19.583838 19.119742 -1.027335 -0.112039 -4.307658 -7.755196 6.798792 4.859711 -2.971455 -0.000000 -0.000002 30.598329 23.977724 -2.756680 -7.705794 0.000005 -0.000001 -17.806211 -26.947480 -67.843313 -6.891855 -0.000000 0.000002 25.124540 -13.652037 -9.415812 2.568456 -0.000000 -0.000002 5.648047 -14.421193 2.310329 -0.000002 -0.000007 13.368045 -9.381395 23.146415 -17.070564 -0.000001 -0.000002 10.738918 1.021118 -12.049523 -18.734546 0.000003 3.852685 1.669498 0.000002 -0.000001 0.000001 -2.568458 -0.000000 -0.000002 -9.795297 -21.156523 -5.310468 -0.000000 -0.000007 13.368046 5.826374 34.501051 2.665688 -0.000000 -0.000005 10.738914 7.001001 -17.681543 -1.173698 -0.000000 3.852684 1.669499 0.000000 0.000003 0.000000 
-1.174378 -2.823808 -24.088524 -9.203914 3.598080 -85.068012 0.000000 0.000000 -2.106125 -0.156996 -8.447854 6.598942 0.000000 0.000002 -4.765744 11.119547 -0.707309 2.110912 -0.000001 0.000002 -5.279445 -13.804459 24.626307 22.812869 -0.000002 0.513697 -3.981107 36.768046 -9.280210 29.651415 1.025240 -0.112039 -4.307662 16.430604 -1.654740 10.402596 2.971456 -0.000000 -0.000002 -9.906301 15.170929 -1.289844 7.705801 0.000002 -0.000005 15.875796 -25.434730 -7.417312 6.891859 0.000001 -0.000001 -41.852288 -19.609167 19.007124 -1.027333 -0.112040 -4.307666 -8.045113 6.586023 4.683329 -2.971458 0.000001 0.000003 30.408876 23.539209 -2.715947 -7.705800 0.000002 0.000004 -18.655805 -29.279720 -67.790686 -6.891858 -0.000004 0.000005 28.161054 -15.087683 -10.673622 2.568458 -0.000000 0.000006 5.405339 -14.274587 2.091844 -0.000003 -0.000006 13.368045 -9.062733 22.883620 -16.519414 -0.000004 -0.000005 10.738918 0.797184 -11.901675 -18.900631 -0.000002 3.852683 1.669498 0.000000 -0.000003 -0.000002 -2.568456 -0.000000 0.000008 -9.881983 -21.039457 -5.435850 0.000000 -0.000005 13.368048 5.582052 34.125408 2.582287 -0.000000 -0.000005 10.738917 7.187582 -17.276352 -1.189361 0.000000 3.852684 1.669499 -0.000001 0.000001 -0.000000 
